<!-- <svg width="35" height="36" viewBox="0 0 35 36" fill="none" xmlns="http://www.w3.org/2000/svg">
<g filter="url(#filter0_b_2535_28410)">
<path d="M0 4.5C0 2.29086 1.79086 0.5 4 0.5H31C33.2091 0.5 35 2.29086 35 4.5V31.5C35 33.7091 33.2091 35.5 31 35.5H4C1.79086 35.5 0 33.7091 0 31.5V4.5Z" fill="#FAFAFA"/>
<path d="M0.25 4.5C0.25 2.42893 1.92893 0.75 4 0.75H31C33.0711 0.75 34.75 2.42893 34.75 4.5V31.5C34.75 33.5711 33.0711 35.25 31 35.25H4C1.92893 35.25 0.25 33.5711 0.25 31.5V4.5Z" stroke="#E0E0E0" stroke-width="0.5"/>
<path d="M12.25 9.5C11.388 9.5 10.5614 9.84241 9.9519 10.4519C9.34241 11.0614 9 11.888 9 12.75V24.25C9 25.112 9.34241 25.9386 9.9519 26.5481C10.5614 27.1576 11.388 27.5 12.25 27.5H18.022C17.7223 27.0325 17.484 26.5284 17.313 26H12.25C11.7859 26 11.3408 25.8156 11.0126 25.4874C10.6844 25.1592 10.5 24.7141 10.5 24.25V12.75C10.5 11.784 11.284 11 12.25 11H23.75C24.716 11 25.5 11.784 25.5 12.75V17.813C26.0284 17.984 26.5325 18.2223 27 18.522V12.75C27 11.888 26.6576 11.0614 26.0481 10.4519C25.4386 9.84241 24.612 9.5 23.75 9.5H12.25ZM18.5 15.75C18.5 15.5511 18.579 15.3603 18.7197 15.2197C18.8603 15.079 19.0511 15 19.25 15H22.75C22.9489 15 23.1397 15.079 23.2803 15.2197C23.421 15.3603 23.5 15.5511 23.5 15.75C23.5 15.9489 23.421 16.1397 23.2803 16.2803C23.1397 16.421 22.9489 16.5 22.75 16.5H19.25C19.0511 16.5 18.8603 16.421 18.7197 16.2803C18.579 16.1397 18.5 15.9489 18.5 15.75ZM16.78 15.28C16.8537 15.2113 16.9128 15.1285 16.9538 15.0365C16.9948 14.9445 17.0168 14.8452 17.0186 14.7445C17.0204 14.6438 17.0018 14.5438 16.9641 14.4504C16.9264 14.357 16.8703 14.2722 16.799 14.201C16.7278 14.1297 16.643 14.0736 16.5496 14.0359C16.4562 13.9982 16.3562 13.9796 16.2555 13.9814C16.1548 13.9832 16.0555 14.0052 15.9635 14.0462C15.8715 14.0872 15.7887 14.1463 15.72 14.22L14.25 15.69L13.78 15.22C13.6378 15.0875 13.4498 15.0154 13.2555 15.0188C13.0612 15.0223 12.8758 15.101 12.7384 15.2384C12.601 15.3758 12.5223 15.5612 12.5188 15.7555C12.5154 15.9498 12.5875 16.1378 12.72 16.28L13.72 17.28C13.8606 17.4205 14.0512 17.4993 14.25 17.4993C14.4488 17.4993 14.6394 17.4205 14.78 17.28L16.78 15.28ZM16.78 19.72C16.9205 19.8606 16.9993 20.0512 16.9993 20.25C16.9993 20.4488 16.9205 20.6394 16.78 20.78L14.78 22.78C14.6394 22.9205 14.4488 22.9993 14.25 22.9993C14.0512 22.9993 13.8606 22.9205 13.72 22.78L12.72 21.78C12.6463 21.7113 12.5872 21.6285 12.5462 21.5365C12.5052 21.4445 12.4832 21.3452 12.4814 21.2445C12.4796 21.1438 12.4982 21.0438 12.5359 20.9504C12.5736 20.857 12.6297 20.7722 12.701 20.701C12.7722 20.6297 12.857 20.5736 12.9504 20.5359C13.0438 20.4982 13.1438 20.4796 13.2445 20.4814C13.3452 20.4832 13.4445 20.5052 13.5365 20.5462C13.6285 20.5872 13.7113 20.6463 13.78 20.72L14.25 21.19L15.72 19.72C15.8606 19.5795 16.0512 19.5007 16.25 19.5007C16.4488 19.5007 16.6394 19.5795 16.78 19.72ZM29 24C29 22.5413 28.4205 21.1424 27.3891 20.1109C26.3576 19.0795 24.9587 18.5 23.5 18.5C22.0413 18.5 20.6424 19.0795 19.6109 20.1109C18.5795 21.1424 18 22.5413 18 24C18 25.4587 18.5795 26.8576 19.6109 27.8891C20.6424 28.9205 22.0413 29.5 23.5 29.5C24.9587 29.5 26.3576 28.9205 27.3891 27.8891C28.4205 26.8576 29 25.4587 29 24ZM24 24.5L24.001 27.003C24.001 27.1356 23.9483 27.2628 23.8546 27.3566C23.7608 27.4503 23.6336 27.503 23.501 27.503C23.3684 27.503 23.2412 27.4503 23.1474 27.3566C23.0537 27.2628 23.001 27.1356 23.001 27.003V24.5H20.496C20.3634 24.5 20.2362 24.4473 20.1424 24.3536C20.0487 24.2598 19.996 24.1326 19.996 24C19.996 23.8674 20.0487 23.7402 20.1424 23.6464C20.2362 23.5527 20.3634 23.5 20.496 23.5H23V21C23 20.8674 23.0527 20.7402 23.1464 20.6464C23.2402 20.5527 23.3674 20.5 23.5 20.5C23.6326 20.5 23.7598 20.5527 23.8536 20.6464C23.9473 20.7402 24 20.8674 24 21V23.5H26.497C26.6296 23.5 26.7568 23.5527 26.8506 23.6464C26.9443 23.7402 26.997 23.8674 26.997 24C26.997 24.1326 26.9443 24.2598 26.8506 24.3536C26.7568 24.4473 26.6296 24.5 26.497 24.5H24Z" fill="#2196F3"/>
</g>
<defs>
<filter id="filter0_b_2535_28410" x="-44" y="-43.5" width="123" height="123" filterUnits="userSpaceOnUse" color-interpolation-filters="sRGB">
<feFlood flood-opacity="0" result="BackgroundImageFix"/>
<feGaussianBlur in="BackgroundImageFix" stdDeviation="22"/>
<feComposite in2="SourceAlpha" operator="in" result="effect1_backgroundBlur_2535_28410"/>
<feBlend mode="normal" in="SourceGraphic" in2="effect1_backgroundBlur_2535_28410" result="shape"/>
</filter>
</defs>
</svg> -->

<svg width="35" height="35" viewBox="0 0 35 35" fill="none" xmlns="http://www.w3.org/2000/svg">
<g filter="url(#filter0_b_3159_58170)">
<path d="M0 17.5C0 7.83502 7.83502 0 17.5 0C27.165 0 35 7.83502 35 17.5C35 27.165 27.165 35 17.5 35C7.83502 35 0 27.165 0 17.5Z" fill="#0288D1" fill-opacity="0.08"/>
<path d="M11.9375 11C11.291 11 10.671 11.2568 10.2139 11.7139C9.75681 12.171 9.5 12.791 9.5 13.4375V22.0625C9.5 22.709 9.75681 23.329 10.2139 23.7861C10.671 24.2432 11.291 24.5 11.9375 24.5H15.3738C15.7597 24.5 16.0017 24.0661 15.8564 23.7087C15.7767 23.5126 15.5914 23.375 15.3797 23.375H11.9375C11.5894 23.375 11.2556 23.2367 11.0094 22.9906C10.7633 22.7444 10.625 22.4106 10.625 22.0625V13.4375C10.625 12.713 11.213 12.125 11.9375 12.125H20.5625C21.287 12.125 21.875 12.713 21.875 13.4375V16.8797C21.875 17.0914 22.0126 17.2767 22.2087 17.3564C22.5661 17.5017 23 17.2597 23 16.8738V13.4375C23 12.791 22.7432 12.171 22.2861 11.7139C21.829 11.2568 21.209 11 20.5625 11H11.9375ZM16.625 15.6875C16.625 15.5383 16.6843 15.3952 16.7898 15.2898C16.8952 15.1843 17.0383 15.125 17.1875 15.125H19.8125C19.9617 15.125 20.1048 15.1843 20.2102 15.2898C20.3157 15.3952 20.375 15.5383 20.375 15.6875C20.375 15.8367 20.3157 15.9798 20.2102 16.0852C20.1048 16.1907 19.9617 16.25 19.8125 16.25H17.1875C17.0383 16.25 16.8952 16.1907 16.7898 16.0852C16.6843 15.9798 16.625 15.8367 16.625 15.6875ZM15.335 15.335C15.3903 15.2835 15.4346 15.2214 15.4653 15.1524C15.4961 15.0834 15.5126 15.0089 15.5139 14.9334C15.5153 14.8579 15.5014 14.7828 15.4731 14.7128C15.4448 14.6428 15.4027 14.5791 15.3493 14.5257C15.2959 14.4723 15.2322 14.4302 15.1622 14.4019C15.0922 14.3736 15.0171 14.3597 14.9416 14.3611C14.8661 14.3624 14.7916 14.3789 14.7226 14.4097C14.6536 14.4404 14.5915 14.4847 14.54 14.54L13.4375 15.6425L13.085 15.29C12.9784 15.1906 12.8373 15.1365 12.6916 15.1391C12.5459 15.1417 12.4068 15.2007 12.3038 15.3038C12.2007 15.4068 12.1417 15.5459 12.1391 15.6916C12.1365 15.8373 12.1906 15.9784 12.29 16.085L13.04 16.835C13.1455 16.9403 13.2884 16.9995 13.4375 16.9995C13.5866 16.9995 13.7295 16.9403 13.835 16.835L15.335 15.335ZM15.335 18.665C15.4403 18.7705 15.4995 18.9134 15.4995 19.0625C15.4995 19.2116 15.4403 19.3545 15.335 19.46L13.835 20.96C13.7295 21.0653 13.5866 21.1245 13.4375 21.1245C13.2884 21.1245 13.1455 21.0653 13.04 20.96L12.29 20.21C12.2347 20.1585 12.1904 20.0964 12.1597 20.0274C12.1289 19.9584 12.1124 19.8839 12.1111 19.8084C12.1097 19.7329 12.1236 19.6578 12.1519 19.5878C12.1802 19.5178 12.2223 19.4541 12.2757 19.4007C12.3291 19.3473 12.3928 19.3052 12.4628 19.2769C12.5328 19.2486 12.6079 19.2347 12.6834 19.2361C12.7589 19.2374 12.8334 19.2539 12.9024 19.2847C12.9714 19.3154 13.0335 19.3597 13.085 19.415L13.4375 19.7675L14.54 18.665C14.6455 18.5597 14.7884 18.5005 14.9375 18.5005C15.0866 18.5005 15.2295 18.5597 15.335 18.665ZM24.5 21.875C24.5 20.781 24.0654 19.7318 23.2918 18.9582C22.5182 18.1846 21.469 17.75 20.375 17.75C19.281 17.75 18.2318 18.1846 17.4582 18.9582C16.6846 19.7318 16.25 20.781 16.25 21.875C16.25 22.969 16.6846 24.0182 17.4582 24.7918C18.2318 25.5654 19.281 26 20.375 26C21.469 26 22.5182 25.5654 23.2918 24.7918C24.0654 24.0182 24.5 22.969 24.5 21.875ZM20.75 22.25L20.7507 24.1273C20.7507 24.2267 20.7112 24.3221 20.6409 24.3924C20.5706 24.4627 20.4752 24.5023 20.3757 24.5023C20.2763 24.5023 20.1809 24.4627 20.1106 24.3924C20.0403 24.3221 20.0007 24.2267 20.0007 24.1273V22.25H18.122C18.0225 22.25 17.9272 22.2105 17.8568 22.1402C17.7865 22.0698 17.747 21.9745 17.747 21.875C17.747 21.7755 17.7865 21.6802 17.8568 21.6098C17.9272 21.5395 18.0225 21.5 18.122 21.5H20V19.625C20 19.5255 20.0395 19.4302 20.1098 19.3598C20.1802 19.2895 20.2755 19.25 20.375 19.25C20.4745 19.25 20.5698 19.2895 20.6402 19.3598C20.7105 19.4302 20.75 19.5255 20.75 19.625V21.5H22.6227C22.7222 21.5 22.8176 21.5395 22.8879 21.6098C22.9582 21.6802 22.9977 21.7755 22.9977 21.875C22.9977 21.9745 22.9582 22.0698 22.8879 22.1402C22.8176 22.2105 22.7222 22.25 22.6227 22.25H20.75Z" fill="#2196F3"/>
</g>
<defs>
<filter id="filter0_b_3159_58170" x="-44" y="-44" width="123" height="123" filterUnits="userSpaceOnUse" color-interpolation-filters="sRGB">
<feFlood flood-opacity="0" result="BackgroundImageFix"/>
<feGaussianBlur in="BackgroundImageFix" stdDeviation="22"/>
<feComposite in2="SourceAlpha" operator="in" result="effect1_backgroundBlur_3159_58170"/>
<feBlend mode="normal" in="SourceGraphic" in2="effect1_backgroundBlur_3159_58170" result="shape"/>
</filter>
</defs>
</svg>

