<svg width="20" height="20" viewBox="0 0 20 20" fill="none" xmlns="http://www.w3.org/2000/svg">
<mask id="mask0_3164_20087" style="mask-type:alpha" maskUnits="userSpaceOnUse" x="0" y="0" width="20" height="20">
<rect width="20" height="20" fill="#D9D9D9"/>
</mask>
<g mask="url(#mask0_3164_20087)">
<path d="M4.42243 17.9177C4.00149 17.9177 3.64518 17.7719 3.35352 17.4802C3.06185 17.1886 2.91602 16.8322 2.91602 16.4113V5.25751C2.91602 4.83657 3.06185 4.48026 3.35352 4.18859C3.64518 3.89693 4.00149 3.75109 4.42243 3.75109H5.57629V2.62928C5.57629 2.4466 5.63745 2.29409 5.75979 2.17176C5.88211 2.04944 6.03461 1.98828 6.21731 1.98828C6.39999 1.98828 6.5525 2.04944 6.67483 2.17176C6.79715 2.29409 6.85831 2.4466 6.85831 2.62928V3.75109H13.1724V2.61326C13.1724 2.43591 13.2322 2.28741 13.3519 2.16776C13.4715 2.04811 13.62 1.98828 13.7974 1.98828C13.9747 1.98828 14.1232 2.04811 14.2429 2.16776C14.3625 2.28741 14.4224 2.43591 14.4224 2.61326V3.75109H15.5762C15.9972 3.75109 16.3535 3.89693 16.6451 4.18859C16.9368 4.48026 17.0826 4.83657 17.0826 5.25751V16.4113C17.0826 16.8322 16.9368 17.1886 16.6451 17.4802C16.3535 17.7719 15.9972 17.9177 15.5762 17.9177H4.42243ZM4.42243 16.6677H15.5762C15.6403 16.6677 15.6991 16.641 15.7525 16.5876C15.806 16.5342 15.8327 16.4754 15.8327 16.4113V8.59085H4.16599V16.4113C4.16599 16.4754 4.1927 16.5342 4.24612 16.5876C4.29955 16.641 4.35832 16.6677 4.42243 16.6677ZM4.16599 7.34087H15.8327V5.25751C15.8327 5.1934 15.806 5.13463 15.7525 5.0812C15.6991 5.02778 15.6403 5.00107 15.5762 5.00107H4.42243C4.35832 5.00107 4.29955 5.02778 4.24612 5.0812C4.1927 5.13463 4.16599 5.1934 4.16599 5.25751V7.34087ZM9.99933 11.7318C9.79527 11.7318 9.6214 11.66 9.4777 11.5163C9.33401 11.3726 9.26216 11.1987 9.26216 10.9947C9.26216 10.7906 9.33401 10.6167 9.4777 10.4731C9.6214 10.3294 9.79527 10.2575 9.99933 10.2575C10.2034 10.2575 10.3773 10.3294 10.521 10.4731C10.6646 10.6167 10.7365 10.7906 10.7365 10.9947C10.7365 11.1987 10.6646 11.3726 10.521 11.5163C10.3773 11.66 10.2034 11.7318 9.99933 11.7318ZM6.66599 11.7318C6.46194 11.7318 6.28806 11.66 6.14437 11.5163C6.00068 11.3726 5.92883 11.1987 5.92883 10.9947C5.92883 10.7906 6.00068 10.6167 6.14437 10.4731C6.28806 10.3294 6.46194 10.2575 6.66599 10.2575C6.87005 10.2575 7.04393 10.3294 7.18762 10.4731C7.33131 10.6167 7.40316 10.7906 7.40316 10.9947C7.40316 11.1987 7.33131 11.3726 7.18762 11.5163C7.04393 11.66 6.87005 11.7318 6.66599 11.7318ZM13.3327 11.7318C13.1286 11.7318 12.9547 11.66 12.811 11.5163C12.6673 11.3726 12.5955 11.1987 12.5955 10.9947C12.5955 10.7906 12.6673 10.6167 12.811 10.4731C12.9547 10.3294 13.1286 10.2575 13.3327 10.2575C13.5367 10.2575 13.7106 10.3294 13.8543 10.4731C13.998 10.6167 14.0698 10.7906 14.0698 10.9947C14.0698 11.1987 13.998 11.3726 13.8543 11.5163C13.7106 11.66 13.5367 11.7318 13.3327 11.7318ZM9.99933 15.0011C9.79527 15.0011 9.6214 14.9292 9.4777 14.7855C9.33401 14.6418 9.26216 14.468 9.26216 14.2639C9.26216 14.0599 9.33401 13.886 9.4777 13.7423C9.6214 13.5986 9.79527 13.5267 9.99933 13.5267C10.2034 13.5267 10.3773 13.5986 10.521 13.7423C10.6646 13.886 10.7365 14.0599 10.7365 14.2639C10.7365 14.468 10.6646 14.6418 10.521 14.7855C10.3773 14.9292 10.2034 15.0011 9.99933 15.0011ZM6.66599 15.0011C6.46194 15.0011 6.28806 14.9292 6.14437 14.7855C6.00068 14.6418 5.92883 14.468 5.92883 14.2639C5.92883 14.0599 6.00068 13.886 6.14437 13.7423C6.28806 13.5986 6.46194 13.5267 6.66599 13.5267C6.87005 13.5267 7.04393 13.5986 7.18762 13.7423C7.33131 13.886 7.40316 14.0599 7.40316 14.2639C7.40316 14.468 7.33131 14.6418 7.18762 14.7855C7.04393 14.9292 6.87005 15.0011 6.66599 15.0011ZM13.3327 15.0011C13.1286 15.0011 12.9547 14.9292 12.811 14.7855C12.6673 14.6418 12.5955 14.468 12.5955 14.2639C12.5955 14.0599 12.6673 13.886 12.811 13.7423C12.9547 13.5986 13.1286 13.5267 13.3327 13.5267C13.5367 13.5267 13.7106 13.5986 13.8543 13.7423C13.998 13.886 14.0698 14.0599 14.0698 14.2639C14.0698 14.468 13.998 14.6418 13.8543 14.7855C13.7106 14.9292 13.5367 15.0011 13.3327 15.0011Z" fill="black" fill-opacity="0.56"/>
</g>
</svg>
