<svg width="24" height="24" viewBox="0 0 24 24" fill="none" xmlns="http://www.w3.org/2000/svg">
<rect x="0.5" y="0.5" width="23" height="23" rx="11.5" stroke="white"/>
<mask id="mask0_3314_45890" style="mask-type:alpha" maskUnits="userSpaceOnUse" x="2" y="2" width="20" height="20">
<rect x="2" y="2" width="20" height="20" fill="#D9D9D9"/>
</mask>
<g mask="url(#mask0_3314_45890)">
<path d="M15.8558 12.6235H6.375C6.19764 12.6235 6.04917 12.5637 5.92958 12.444C5.80986 12.3244 5.75 12.1759 5.75 11.9985C5.75 11.8212 5.80986 11.6727 5.92958 11.5531C6.04917 11.4334 6.19764 11.3735 6.375 11.3735H15.8558L11.5481 7.06583C11.4242 6.94194 11.3631 6.79694 11.3646 6.63083C11.3663 6.46472 11.4317 6.31701 11.5608 6.18771C11.6901 6.06701 11.8365 6.00451 12 6.00021C12.1635 5.9959 12.3099 6.0584 12.4392 6.18771L17.7227 11.4713C17.8008 11.5493 17.8558 11.6316 17.8877 11.7181C17.9198 11.8047 17.9358 11.8981 17.9358 11.9985C17.9358 12.099 17.9198 12.1924 17.8877 12.279C17.8558 12.3655 17.8008 12.4478 17.7227 12.5258L12.4392 17.8094C12.3237 17.9248 12.1808 17.9838 12.0104 17.9865C11.84 17.9891 11.6901 17.9301 11.5608 17.8094C11.4317 17.6801 11.3671 17.5316 11.3671 17.364C11.3671 17.1962 11.4317 17.0476 11.5608 16.9183L15.8558 12.6235Z" fill="white"/>
</g>
</svg>

