<svg width="17" height="12" viewBox="0 0 17 12" fill="none" xmlns="http://www.w3.org/2000/svg">
<path d="M14.5 0.375C14.5 0.275544 14.4605 0.180161 14.3902 0.109835C14.3198 0.0395088 14.2245 0 14.125 0C14.0255 0 13.9302 0.0395088 13.8598 0.109835C13.7895 0.180161 13.75 0.275544 13.75 0.375V0.688C13.2033 0.295336 12.5403 0.0979597 11.8679 0.12761C11.1954 0.157261 10.5524 0.412216 10.0423 0.851476C9.53227 1.29074 9.18475 1.88877 9.05567 2.54942C8.92659 3.21007 9.02345 3.89493 9.33066 4.49387C9.63788 5.09281 10.1376 5.57104 10.7495 5.85163C11.3613 6.13223 12.0498 6.19889 12.7041 6.0409C13.3585 5.88291 13.9406 5.50945 14.3571 4.98057C14.7735 4.45169 14.9999 3.79814 15 3.125C15 3.02554 14.9605 2.93016 14.8902 2.85983C14.8198 2.78951 14.7245 2.75 14.625 2.75C14.5255 2.75 14.4302 2.78951 14.3598 2.85983C14.2895 2.93016 14.25 3.02554 14.25 3.125C14.25 3.6349 14.0769 4.12968 13.7589 4.52828C13.4409 4.92688 12.9969 5.20564 12.4998 5.3189C12.0026 5.43216 11.4817 5.37319 11.0225 5.15166C10.5632 4.93013 10.1928 4.55917 9.97197 4.09958C9.75113 3.63998 9.69295 3.11901 9.80696 2.62202C9.92098 2.12503 10.2004 1.6815 10.5995 1.36412C10.9986 1.04673 11.4936 0.874313 12.0035 0.875109C12.5134 0.875905 13.0079 1.04987 13.406 1.3685L13.41 1.3715L13.415 1.375H12.75C12.6505 1.375 12.5552 1.41451 12.4848 1.48483C12.4145 1.55516 12.375 1.65054 12.375 1.75C12.375 1.84946 12.4145 1.94484 12.4848 2.01517C12.5552 2.08549 12.6505 2.125 12.75 2.125H14.125C14.2245 2.125 14.3198 2.08549 14.3902 2.01517C14.4605 1.94484 14.5 1.84946 14.5 1.75V0.375ZM14 8.375V5.9975C13.769 6.159 13.5175 6.2925 13.25 6.395V8.375L13.247 8.4465C13.229 8.66544 13.1294 8.86962 12.9679 9.01848C12.8063 9.16733 12.5947 9.24998 12.375 9.25H5.625L5.553 9.247C5.33415 9.22893 5.13009 9.12923 4.98134 8.9677C4.83259 8.80616 4.75001 8.59459 4.75 8.375V4.687L8.825 6.832L8.8735 6.853C8.92239 6.87054 8.97439 6.87772 9.0262 6.87411C9.07802 6.87049 9.12852 6.85615 9.1745 6.832L10.3505 6.213C10.1018 6.07974 9.87011 5.91689 9.6605 5.728L9 6.077L4.75 3.8395V3.625L4.753 3.553C4.77107 3.33415 4.87077 3.13009 5.0323 2.98134C5.19384 2.83259 5.4054 2.75001 5.625 2.75H8.52C8.548 2.49 8.603 2.24 8.685 2H5.625L5.533 2.0025C5.1186 2.026 4.72889 2.20718 4.44384 2.50888C4.15878 2.81059 3.99997 3.20993 4 3.625V8.375L4.0025 8.467C4.026 8.8814 4.20718 9.2711 4.50888 9.55616C4.81059 9.84122 5.20993 10 5.625 10H12.375L12.467 9.9975C12.8814 9.974 13.2711 9.79282 13.5562 9.49112C13.8412 9.18941 14 8.79007 14 8.375Z" fill="black" fill-opacity="0.87"/>
</svg>

