<!-- <svg width="40" height="40" viewBox="0 0 40 40" fill="none" xmlns="http://www.w3.org/2000/svg">
<circle cx="20" cy="20" r="20" fill="#D32F2F"/>
<mask id="mask0_1739_22206" style="mask-type:alpha" maskUnits="userSpaceOnUse" x="8" y="8" width="24" height="24">
<rect x="8" y="8" width="24" height="24" fill="#D9D9D9"/>
</mask>
<g mask="url(#mask0_1739_22206)">
<path d="M15.3077 28.4998C14.8106 28.4998 14.385 28.3228 14.031 27.9688C13.677 27.6148 13.5 27.1892 13.5 26.6921V13.9998H13.25C13.0375 13.9998 12.8594 13.9279 12.7156 13.7841C12.5719 13.6403 12.5 13.4621 12.5 13.2495C12.5 13.0369 12.5719 12.8588 12.7156 12.7152C12.8594 12.5716 13.0375 12.4998 13.25 12.4998H17C17 12.255 17.0862 12.0463 17.2586 11.8739C17.4311 11.7015 17.6397 11.6152 17.8846 11.6152H22.1154C22.3602 11.6152 22.5689 11.7015 22.7413 11.8739C22.9138 12.0463 23 12.255 23 12.4998H26.75C26.9625 12.4998 27.1406 12.5717 27.2843 12.7156C27.4281 12.8594 27.5 13.0376 27.5 13.2502C27.5 13.4628 27.4281 13.6409 27.2843 13.7844C27.1406 13.928 26.9625 13.9998 26.75 13.9998H26.5V26.6921C26.5 27.1892 26.3229 27.6148 25.9689 27.9688C25.6149 28.3228 25.1894 28.4998 24.6923 28.4998H15.3077ZM25 13.9998H15V26.6921C15 26.7818 15.0288 26.8556 15.0865 26.9133C15.1442 26.971 15.218 26.9998 15.3077 26.9998H24.6923C24.782 26.9998 24.8557 26.971 24.9134 26.9133C24.9711 26.8556 25 26.7818 25 26.6921V13.9998ZM18.1542 24.9998C18.3668 24.9998 18.5448 24.9279 18.6884 24.7842C18.832 24.6404 18.9038 24.4623 18.9038 24.2498V16.7498C18.9038 16.5373 18.8319 16.3592 18.6881 16.2154C18.5443 16.0717 18.3661 15.9998 18.1535 15.9998C17.9409 15.9998 17.7628 16.0717 17.6192 16.2154C17.4756 16.3592 17.4039 16.5373 17.4039 16.7498V24.2498C17.4039 24.4623 17.4758 24.6404 17.6196 24.7842C17.7634 24.9279 17.9416 24.9998 18.1542 24.9998ZM21.8465 24.9998C22.0591 24.9998 22.2371 24.9279 22.3807 24.7842C22.5243 24.6404 22.5961 24.4623 22.5961 24.2498V16.7498C22.5961 16.5373 22.5242 16.3592 22.3804 16.2154C22.2366 16.0717 22.0584 15.9998 21.8458 15.9998C21.6332 15.9998 21.4551 16.0717 21.3115 16.2154C21.1679 16.3592 21.0961 16.5373 21.0961 16.7498V24.2498C21.0961 24.4623 21.168 24.6404 21.3119 24.7842C21.4557 24.9279 21.6339 24.9998 21.8465 24.9998Z" fill="white"/>
</g>
</svg> -->

<svg width="20" height="20" viewBox="0 0 20 20" fill="none" xmlns="http://www.w3.org/2000/svg">
<mask id="mask0_3366_59333" style="mask-type:alpha" maskUnits="userSpaceOnUse" x="0" y="0" width="20" height="20">
<rect width="20" height="20" fill="#D9D9D9"/>
</mask>
<g mask="url(#mask0_3366_59333)">
<path d="M6.08975 17.0841C5.67549 17.0841 5.32085 16.9366 5.02585 16.6416C4.73084 16.3466 4.58333 15.992 4.58333 15.5777V5.00082H4.375C4.19792 5.00082 4.04948 4.94089 3.92969 4.82105C3.8099 4.70121 3.75 4.55271 3.75 4.37555C3.75 4.19839 3.8099 4.04999 3.92969 3.93034C4.04948 3.81067 4.19792 3.75084 4.375 3.75084H7.49998C7.49998 3.54678 7.57183 3.37291 7.71552 3.22921C7.85922 3.08552 8.03309 3.01367 8.23715 3.01367H11.7628C11.9669 3.01367 12.1407 3.08552 12.2844 3.22921C12.4281 3.37291 12.5 3.54678 12.5 3.75084H15.625C15.802 3.75084 15.9505 3.81076 16.0703 3.93061C16.1901 4.05046 16.25 4.19896 16.25 4.37611C16.25 4.55328 16.1901 4.70169 16.0703 4.82134C15.9505 4.94099 15.802 5.00082 15.625 5.00082H15.4166V15.5777C15.4166 15.992 15.2691 16.3466 14.9741 16.6416C14.6791 16.9366 14.3245 17.0841 13.9102 17.0841H6.08975ZM14.1666 5.00082H5.83331V15.5777C5.83331 15.6525 5.85735 15.7139 5.90544 15.762C5.95352 15.8101 6.01496 15.8342 6.08975 15.8342H13.9102C13.985 15.8342 14.0464 15.8101 14.0945 15.762C14.1426 15.7139 14.1666 15.6525 14.1666 15.5777V5.00082ZM8.46181 14.1675C8.63897 14.1675 8.78737 14.1076 8.90702 13.9878C9.02669 13.868 9.08652 13.7196 9.08652 13.5425V7.29246C9.08652 7.11539 9.0266 6.96696 8.90675 6.84717C8.7869 6.72738 8.6384 6.66748 8.46125 6.66748C8.28408 6.66748 8.13567 6.72738 8.01602 6.84717C7.89637 6.96696 7.83654 7.11539 7.83654 7.29246V13.5425C7.83654 13.7196 7.89647 13.868 8.01631 13.9878C8.13615 14.1076 8.28465 14.1675 8.46181 14.1675ZM11.5387 14.1675C11.7159 14.1675 11.8643 14.1076 11.9839 13.9878C12.1036 13.868 12.1634 13.7196 12.1634 13.5425V7.29246C12.1634 7.11539 12.1035 6.96696 11.9836 6.84717C11.8638 6.72738 11.7153 6.66748 11.5381 6.66748C11.361 6.66748 11.2126 6.72738 11.0929 6.84717C10.9733 6.96696 10.9134 7.11539 10.9134 7.29246V13.5425C10.9134 13.7196 10.9734 13.868 11.0932 13.9878C11.2131 14.1076 11.3616 14.1675 11.5387 14.1675Z" fill="#D32F2F"/>
</g>
</svg>

