<svg width="20" height="20" viewBox="0 0 20 20" fill="none" xmlns="http://www.w3.org/2000/svg">
<mask id="mask0_3184_20032" style="mask-type:alpha" maskUnits="userSpaceOnUse" x="0" y="0" width="20" height="20">
<rect width="20" height="20" fill="#D9D9D9"/>
</mask>
<g mask="url(#mask0_3184_20032)">
<path d="M10.0002 10.8779L5.77265 15.1055C5.65727 15.2209 5.51225 15.2799 5.33757 15.2826C5.1629 15.2853 5.01521 15.2262 4.89448 15.1055C4.77375 14.9848 4.71338 14.8384 4.71338 14.6664C4.71338 14.4944 4.77375 14.3481 4.89448 14.2273L9.12205 9.99974L4.89448 5.77216C4.77909 5.65679 4.72007 5.51176 4.7174 5.33708C4.71472 5.16241 4.77375 5.01472 4.89448 4.89399C5.01521 4.77326 5.16157 4.71289 5.33357 4.71289C5.50557 4.71289 5.65193 4.77326 5.77265 4.89399L10.0002 9.12156L14.2278 4.89399C14.3432 4.77861 14.4882 4.71958 14.6629 4.71691C14.8376 4.71423 14.9853 4.77326 15.106 4.89399C15.2267 5.01472 15.2871 5.16108 15.2871 5.33308C15.2871 5.50508 15.2267 5.65144 15.106 5.77216L10.8784 9.99974L15.106 14.2273C15.2214 14.3427 15.2804 14.4877 15.2831 14.6624C15.2857 14.8371 15.2267 14.9848 15.106 15.1055C14.9853 15.2262 14.8389 15.2866 14.6669 15.2866C14.4949 15.2866 14.3485 15.2262 14.2278 15.1055L10.0002 10.8779Z" fill="black" fill-opacity="0.56"/>
</g>
</svg>
