<svg width="18" height="18" viewBox="0 0 20 20" fill="none" xmlns="http://www.w3.org/2000/svg">
<mask id="mask0_3037_48559" style="mask-type:alpha" maskUnits="userSpaceOnUse" x="0" y="0" width="20" height="20">
<rect width="20" height="20" fill="#D9D9D9"/>
</mask>
<g mask="url(#mask0_3037_48559)">
<path d="M10.0017 10.8779L5.77411 15.1055C5.65874 15.2209 5.51371 15.2799 5.33903 15.2826C5.16436 15.2853 5.01667 15.2262 4.89595 15.1055C4.77521 14.9848 4.71484 14.8384 4.71484 14.6664C4.71484 14.4944 4.77521 14.3481 4.89595 14.2273L9.12351 9.99974L4.89595 5.77216C4.78056 5.65679 4.72153 5.51176 4.71886 5.33708C4.71618 5.16241 4.77521 5.01472 4.89595 4.89399C5.01667 4.77326 5.16303 4.71289 5.33503 4.71289C5.50703 4.71289 5.65339 4.77326 5.77411 4.89399L10.0017 9.12156L14.2293 4.89399C14.3447 4.77861 14.4897 4.71958 14.6644 4.71691C14.839 4.71423 14.9867 4.77326 15.1074 4.89399C15.2282 5.01472 15.2886 5.16108 15.2886 5.33308C15.2886 5.50508 15.2282 5.65144 15.1074 5.77216L10.8799 9.99974L15.1074 14.2273C15.2228 14.3427 15.2819 14.4877 15.2845 14.6624C15.2872 14.8371 15.2282 14.9848 15.1074 15.1055C14.9867 15.2262 14.8404 15.2866 14.6684 15.2866C14.4964 15.2866 14.35 15.2262 14.2293 15.1055L10.0017 10.8779Z" fill="black" fill-opacity="0.87"/>
</g>
</svg>
