<svg width="2" height="9" viewBox="0 0 2 9" fill="none" xmlns="http://www.w3.org/2000/svg">
<path d="M0.994211 8.078C0.768878 8.078 0.578211 8 0.422211 7.844C0.266211 7.688 0.188211 7.49733 0.188211 7.272C0.188211 7.04667 0.266211 6.856 0.422211 6.7C0.578211 6.544 0.768878 6.466 0.994211 6.466C1.21088 6.466 1.39288 6.544 1.54021 6.7C1.69621 6.856 1.77421 7.04667 1.77421 7.272C1.77421 7.49733 1.69621 7.688 1.54021 7.844C1.39288 8 1.21088 8.078 0.994211 8.078ZM0.994211 2.514C0.768878 2.514 0.578211 2.436 0.422211 2.28C0.266211 2.124 0.188211 1.93333 0.188211 1.708C0.188211 1.48267 0.266211 1.292 0.422211 1.136C0.578211 0.98 0.768878 0.902 0.994211 0.902C1.21088 0.902 1.39288 0.98 1.54021 1.136C1.69621 1.292 1.77421 1.48267 1.77421 1.708C1.77421 1.93333 1.69621 2.124 1.54021 2.28C1.39288 2.436 1.21088 2.514 0.994211 2.514Z" fill="black" fill-opacity="0.87"/>
</svg>
