<svg width="20" height="20" viewBox="0 0 20 20" fill="none" xmlns="http://www.w3.org/2000/svg">
<mask id="mask0_2989_96183" style="mask-type:alpha" maskUnits="userSpaceOnUse" x="0" y="0" width="20" height="20">
<rect width="20" height="20" fill="#D9D9D9"/>
</mask>
<g mask="url(#mask0_2989_96183)">
<path d="M7.50128 13.3805C6.96603 13.3805 6.51171 13.1938 6.1383 12.8204C5.76491 12.447 5.57822 11.9927 5.57822 11.4574C5.57822 10.9222 5.76491 10.4679 6.1383 10.0945C6.51171 9.72107 6.96603 9.53437 7.50128 9.53437C8.03653 9.53437 8.49086 9.72107 8.86426 10.0945C9.23765 10.4679 9.42434 10.9222 9.42434 11.4574C9.42434 11.9927 9.23765 12.447 8.86426 12.8204C8.49086 13.1938 8.03653 13.3805 7.50128 13.3805ZM4.42439 17.9158C4.00344 17.9158 3.64714 17.7699 3.35547 17.4783C3.0638 17.1866 2.91797 16.8303 2.91797 16.4093V5.25556C2.91797 4.83461 3.0638 4.47831 3.35547 4.18664C3.64714 3.89497 4.00344 3.74914 4.42439 3.74914H5.57824V2.62733C5.57824 2.44465 5.63941 2.29214 5.76174 2.16981C5.88406 2.04749 6.03657 1.98633 6.21926 1.98633C6.40194 1.98633 6.55445 2.04749 6.67678 2.16981C6.7991 2.29214 6.86026 2.44465 6.86026 2.62733V3.74914H13.1743V2.61131C13.1743 2.43396 13.2342 2.28546 13.3538 2.16581C13.4735 2.04615 13.622 1.98633 13.7993 1.98633C13.9767 1.98633 14.1252 2.04615 14.2448 2.16581C14.3645 2.28546 14.4243 2.43396 14.4243 2.61131V3.74914H15.5782C15.9991 3.74914 16.3554 3.89497 16.6471 4.18664C16.9388 4.47831 17.0846 4.83461 17.0846 5.25556V16.4093C17.0846 16.8303 16.9388 17.1866 16.6471 17.4783C16.3554 17.7699 15.9991 17.9158 15.5782 17.9158H4.42439ZM4.42439 16.6658H15.5782C15.6423 16.6658 15.7011 16.6391 15.7545 16.5857C15.8079 16.5322 15.8346 16.4735 15.8346 16.4093V8.58889H4.16795V16.4093C4.16795 16.4735 4.19466 16.5322 4.24807 16.5857C4.3015 16.6391 4.36027 16.6658 4.42439 16.6658ZM4.16795 7.33891H15.8346V5.25556C15.8346 5.19145 15.8079 5.13268 15.7545 5.07925C15.7011 5.02583 15.6423 4.99912 15.5782 4.99912H4.42439C4.36027 4.99912 4.3015 5.02583 4.24807 5.07925C4.19466 5.13268 4.16795 5.19145 4.16795 5.25556V7.33891Z" fill="black" fill-opacity="0.56"/>
</g>
</svg>
