<svg width="20" height="20" viewBox="0 0 20 20" fill="none" xmlns="http://www.w3.org/2000/svg">
<mask id="mask0_2991_29842" style="mask-type:alpha" maskUnits="userSpaceOnUse" x="0" y="0" width="20" height="20">
<rect width="20" height="20" fill="#D9D9D9"/>
</mask>
<g mask="url(#mask0_2991_29842)">
<path d="M4.42439 17.9177C4.00344 17.9177 3.64714 17.7719 3.35547 17.4802C3.0638 17.1886 2.91797 16.8322 2.91797 16.4113V5.25751C2.91797 4.83657 3.0638 4.48026 3.35547 4.18859C3.64714 3.89693 4.00344 3.75109 4.42439 3.75109H5.57824V2.62928C5.57824 2.4466 5.63941 2.29409 5.76174 2.17176C5.88406 2.04944 6.03657 1.98828 6.21926 1.98828C6.40194 1.98828 6.55445 2.04944 6.67678 2.17176C6.7991 2.29409 6.86026 2.4466 6.86026 2.62928V3.75109H13.1743V2.61326C13.1743 2.43591 13.2342 2.28741 13.3538 2.16776C13.4735 2.04811 13.622 1.98828 13.7993 1.98828C13.9767 1.98828 14.1252 2.04811 14.2448 2.16776C14.3645 2.28741 14.4243 2.43591 14.4243 2.61326V3.75109H15.5782C15.9991 3.75109 16.3554 3.89693 16.6471 4.18859C16.9388 4.48026 17.0846 4.83657 17.0846 5.25751V16.4113C17.0846 16.8322 16.9388 17.1886 16.6471 17.4802C16.3554 17.7719 15.9991 17.9177 15.5782 17.9177H4.42439ZM4.42439 16.6677H15.5782C15.6423 16.6677 15.7011 16.641 15.7545 16.5876C15.8079 16.5342 15.8346 16.4754 15.8346 16.4113V8.59084H4.16795V16.4113C4.16795 16.4754 4.19466 16.5342 4.24807 16.5876C4.3015 16.641 4.36027 16.6677 4.42439 16.6677ZM4.16795 7.34086H15.8346V5.25751C15.8346 5.1934 15.8079 5.13463 15.7545 5.0812C15.7011 5.02778 15.6423 5.00107 15.5782 5.00107H4.42439C4.36027 5.00107 4.3015 5.02778 4.24807 5.0812C4.19466 5.13463 4.16795 5.1934 4.16795 5.25751V7.34086Z" fill="black" fill-opacity="0.56"/>
</g>
</svg>
