<svg width="20" height="20" viewBox="0 0 20 20" fill="none" xmlns="http://www.w3.org/2000/svg">
<mask id="mask0_2989_96163" style="mask-type:alpha" maskUnits="userSpaceOnUse" x="0" y="0" width="20" height="20">
<rect width="20" height="20" fill="#D9D9D9"/>
</mask>
<g mask="url(#mask0_2989_96163)">
<path d="M14.1717 17.3729C13.5119 17.3729 12.951 17.1419 12.489 16.6799C12.0271 16.218 11.7961 15.6571 11.7961 14.9972C11.7961 14.3374 12.0271 13.7777 12.489 13.3183C12.951 12.8588 13.5119 12.6291 14.1717 12.6291C14.8316 12.6291 15.3912 12.8588 15.8507 13.3183C16.3101 13.7777 16.5398 14.3374 16.5398 14.9972C16.5398 15.6571 16.3101 16.218 15.8507 16.6799C15.3912 17.1419 14.8316 17.3729 14.1717 17.3729ZM14.1684 11.6997C14.0249 11.6997 13.9062 11.6528 13.8121 11.5589C13.7181 11.4652 13.6711 11.3465 13.6711 11.2029V10.626C13.6711 10.4825 13.718 10.3638 13.8119 10.2699C13.9057 10.1761 14.0242 10.1291 14.1676 10.1291C14.311 10.1291 14.4298 10.1761 14.5238 10.2699C14.6178 10.3638 14.6648 10.4825 14.6648 10.626V11.2029C14.6648 11.3465 14.6179 11.4652 14.524 11.5589C14.4303 11.6528 14.3117 11.6997 14.1684 11.6997ZM14.1676 18.3022C14.311 18.3022 14.4298 18.3492 14.5238 18.4431C14.6178 18.5368 14.6648 18.6555 14.6648 18.7991V19.376C14.6648 19.5195 14.6179 19.6381 14.524 19.732C14.4303 19.8259 14.3117 19.8729 14.1684 19.8729C14.0249 19.8729 13.9062 19.8259 13.8121 19.732C13.7181 19.6381 13.6711 19.5195 13.6711 19.376V18.7991C13.6711 18.6555 13.718 18.5368 13.8119 18.4431C13.9057 18.3492 14.0242 18.3022 14.1676 18.3022ZM16.519 12.6499C16.4153 12.5463 16.3634 12.4278 16.3634 12.2943C16.3634 12.1607 16.4153 12.0421 16.519 11.9385L16.9228 11.5347C17.0211 11.4364 17.1362 11.388 17.2682 11.3895C17.4001 11.3912 17.5179 11.4438 17.6215 11.5474C17.7251 11.6511 17.7769 11.7675 17.7769 11.8968C17.7769 12.0261 17.7251 12.1426 17.6215 12.2462L17.2176 12.6499C17.1194 12.7483 17.0043 12.7988 16.8723 12.8014C16.7404 12.8042 16.6226 12.7537 16.519 12.6499ZM11.8378 17.3312C11.9415 17.4348 11.9934 17.5512 11.9934 17.6804C11.9934 17.8097 11.9415 17.9261 11.8378 18.0297L11.4132 18.4545C11.3158 18.5529 11.2023 18.602 11.0726 18.602C10.9428 18.602 10.8262 18.5529 10.7226 18.4545C10.6188 18.3562 10.5683 18.2411 10.5711 18.1091C10.5737 17.9772 10.6242 17.8594 10.7226 17.7558L11.1392 17.3312C11.238 17.2274 11.3532 17.1756 11.4848 17.1756C11.6165 17.1756 11.7342 17.2274 11.8378 17.3312ZM17.4692 15.0014C17.4692 14.8579 17.5162 14.7392 17.6101 14.6452C17.7038 14.5511 17.8225 14.5041 17.9661 14.5041H18.543C18.6864 14.5041 18.8051 14.5511 18.899 14.6449C18.9929 14.7387 19.0398 14.8572 19.0398 15.0006C19.0398 15.144 18.9929 15.2628 18.899 15.3568C18.8051 15.4509 18.6864 15.4979 18.543 15.4979H17.9661C17.8225 15.4979 17.7038 15.4509 17.6101 15.357C17.5162 15.2633 17.4692 15.1447 17.4692 15.0014ZM10.8667 15.0006C10.8667 15.144 10.8198 15.2628 10.7259 15.3568C10.6321 15.4509 10.5135 15.4979 10.3698 15.4979H9.79297C9.6495 15.4979 9.53082 15.4509 9.43693 15.357C9.34304 15.2633 9.29609 15.1447 9.29609 15.0014C9.29609 14.8579 9.34304 14.7392 9.43693 14.6452C9.53082 14.5511 9.6495 14.5041 9.79297 14.5041H10.3698C10.5135 14.5041 10.6321 14.5511 10.7259 14.6449C10.8198 14.7387 10.8667 14.8572 10.8667 15.0006ZM16.519 17.3312C16.6226 17.2274 16.739 17.1777 16.8682 17.182C16.9975 17.1863 17.1139 17.2361 17.2176 17.3312L17.6342 17.7349C17.7326 17.8333 17.783 17.9484 17.7857 18.0804C17.7885 18.2123 17.738 18.3301 17.6342 18.4337C17.5306 18.5373 17.4121 18.5891 17.2786 18.5891C17.145 18.5891 17.0264 18.5373 16.9228 18.4337L16.519 18.0297C16.4268 17.931 16.3778 17.8158 16.3721 17.6841C16.3663 17.5524 16.4153 17.4348 16.519 17.3312ZM11.8378 12.6499C11.7342 12.7537 11.6156 12.8056 11.4821 12.8056C11.3485 12.8056 11.2299 12.7537 11.1263 12.6499L10.7226 12.2462C10.6303 12.1474 10.5814 12.0322 10.5757 11.9004C10.5698 11.7687 10.6188 11.6511 10.7226 11.5474C10.8262 11.4438 10.9426 11.3942 11.0717 11.3985C11.201 11.4028 11.3175 11.4524 11.4211 11.5474L11.8378 11.9514C11.9361 12.0496 11.9866 12.1647 11.9892 12.2966C11.992 12.4286 11.9415 12.5463 11.8378 12.6499ZM4.42443 17.9177C4.00345 17.9177 3.64714 17.7718 3.35547 17.4802C3.0638 17.1885 2.91797 16.8322 2.91797 16.4112V5.25745C2.91797 4.83648 3.0638 4.48016 3.35547 4.18849C3.64714 3.89682 4.00345 3.75099 4.42443 3.75099H5.57818V2.62911C5.57818 2.44759 5.63977 2.29536 5.76297 2.17245C5.88602 2.04967 6.03852 1.98828 6.22047 1.98828C6.40241 1.98828 6.5545 2.04967 6.67672 2.17245C6.79908 2.29536 6.86026 2.44759 6.86026 2.62911V3.75099H13.1744V2.61328C13.1744 2.4362 13.2344 2.28773 13.3542 2.16786C13.4739 2.04814 13.6224 1.98828 13.7996 1.98828C13.9769 1.98828 14.1253 2.04814 14.2448 2.16786C14.3646 2.28773 14.4244 2.4362 14.4244 2.61328V3.75099H15.5782C15.9992 3.75099 16.3555 3.89682 16.6471 4.18849C16.9388 4.48016 17.0846 4.83648 17.0846 5.25745V7.83766C17.0846 8.05099 17.0124 8.22981 16.868 8.37411C16.7237 8.51856 16.5448 8.59078 16.3313 8.59078H4.16797V16.4112C4.16797 16.4754 4.19471 16.5341 4.24818 16.5874C4.30151 16.6409 4.36026 16.6677 4.42443 16.6677H7.13276C7.30984 16.6677 7.45825 16.7276 7.57797 16.8474C7.69783 16.9673 7.75776 17.1158 7.75776 17.2929C7.75776 17.4701 7.69783 17.6185 7.57797 17.7381C7.45825 17.8578 7.30984 17.9177 7.13276 17.9177H4.42443ZM4.16797 7.34078H15.8346V5.25745C15.8346 5.19328 15.8079 5.13453 15.7544 5.0812C15.7011 5.02773 15.6423 5.00099 15.5782 5.00099H4.42443C4.36026 5.00099 4.30151 5.02773 4.24818 5.0812C4.19471 5.13453 4.16797 5.19328 4.16797 5.25745V7.34078Z" fill="black" fill-opacity="0.56"/>
</g>
</svg>
