<svg width="20" height="20" viewBox="0 0 20 20" fill="none" xmlns="http://www.w3.org/2000/svg">
<mask id="mask0_2989_96173" style="mask-type:alpha" maskUnits="userSpaceOnUse" x="0" y="0" width="20" height="20">
<rect width="20" height="20" fill="#D9D9D9"/>
</mask>
<g mask="url(#mask0_2989_96173)">
<path d="M15.5782 17.9177H13.1503C12.9729 17.9177 12.8244 17.8578 12.7048 17.7381C12.5851 17.6185 12.5253 17.47 12.5253 17.2927C12.5253 17.1153 12.5851 16.9668 12.7048 16.8472C12.8244 16.7275 12.9729 16.6677 13.1503 16.6677H15.5782C15.6423 16.6677 15.7011 16.6409 15.7544 16.5874C15.8079 16.5341 15.8346 16.4754 15.8346 16.4112V8.59078H4.16797V11.251C4.16797 11.4284 4.10811 11.5769 3.98839 11.6966C3.8688 11.8162 3.72033 11.876 3.54297 11.876C3.36561 11.876 3.21714 11.8162 3.09755 11.6966C2.97783 11.5769 2.91797 11.4284 2.91797 11.251V5.25745C2.91797 4.83648 3.0638 4.48016 3.35547 4.18849C3.64714 3.89682 4.00346 3.75099 4.42443 3.75099H5.57818V2.62911C5.57818 2.44648 5.63936 2.29398 5.76172 2.17161C5.88408 2.04939 6.03658 1.98828 6.21922 1.98828C6.402 1.98828 6.5545 2.04939 6.67672 2.17161C6.79908 2.29398 6.86026 2.44648 6.86026 2.62911V3.75099H13.1744V2.61328C13.1744 2.43592 13.2342 2.28738 13.3538 2.16766C13.4735 2.04807 13.6221 1.98828 13.7994 1.98828C13.9768 1.98828 14.1253 2.04807 14.2448 2.16766C14.3646 2.28738 14.4244 2.43592 14.4244 2.61328V3.75099H15.5782C15.9992 3.75099 16.3555 3.89682 16.6471 4.18849C16.9388 4.48016 17.0846 4.83648 17.0846 5.25745V16.4112C17.0846 16.8322 16.9388 17.1885 16.6471 17.4802C16.3555 17.7718 15.9992 17.9177 15.5782 17.9177ZM8.14401 16.4593H1.66797C1.49061 16.4593 1.34214 16.3995 1.22255 16.2797C1.10283 16.1602 1.04297 16.0117 1.04297 15.8343C1.04297 15.657 1.10283 15.5085 1.22255 15.3889C1.34214 15.2692 1.49061 15.2093 1.66797 15.2093H8.14401L6.2288 13.2654C6.11352 13.1499 6.05373 13.0084 6.04943 12.8408C6.04512 12.673 6.10491 12.5272 6.2288 12.4033C6.34422 12.2879 6.48929 12.2302 6.66401 12.2302C6.83859 12.2302 6.98359 12.2879 7.09901 12.4033L10.0109 15.307C10.1616 15.4577 10.2369 15.6335 10.2369 15.8343C10.2369 16.0352 10.1616 16.2109 10.0109 16.3616L7.09901 19.2735C6.98359 19.3888 6.84075 19.4472 6.67047 19.4489C6.50005 19.4504 6.35283 19.3893 6.2288 19.2654C6.11352 19.1499 6.05589 19.0063 6.05589 18.8343C6.05589 18.6624 6.11352 18.5187 6.2288 18.4033L8.14401 16.4593ZM4.16797 7.34078H15.8346V5.25745C15.8346 5.19328 15.8079 5.13453 15.7544 5.0812C15.7011 5.02772 15.6423 5.00099 15.5782 5.00099H4.42443C4.36026 5.00099 4.30151 5.02772 4.24818 5.0812C4.19471 5.13453 4.16797 5.19328 4.16797 5.25745V7.34078Z" fill="black" fill-opacity="0.56"/>
</g>
</svg>
